<?xml version="1.0" encoding="UTF-8" standalone="no"?>
<!-- Created with Inkscape (http://www.inkscape.org/) -->

<svg
   width="48"
   height="48"
   viewBox="0 0 48 48"
   version="1.1"
   id="svg5"
   inkscape:version="1.1.1 (1:1.1+202109281949+c3084ef5ed)"
   sodipodi:docname="favicon.svg"
   xmlns:inkscape="http://www.inkscape.org/namespaces/inkscape"
   xmlns:sodipodi="http://sodipodi.sourceforge.net/DTD/sodipodi-0.dtd"
   xmlns="http://www.w3.org/2000/svg"
   xmlns:svg="http://www.w3.org/2000/svg">
  <sodipodi:namedview
     id="namedview7"
     pagecolor="#ffffff"
     bordercolor="#666666"
     borderopacity="1.0"
     inkscape:pageshadow="2"
     inkscape:pageopacity="0.0"
     inkscape:pagecheckerboard="0"
     inkscape:document-units="px"
     showgrid="true"
     inkscape:object-nodes="false"
     inkscape:zoom="41.708292"
     inkscape:cx="18.785234"
     inkscape:cy="24.431593"
     inkscape:window-width="3800"
     inkscape:window-height="2030"
     inkscape:window-x="20"
     inkscape:window-y="40"
     inkscape:window-maximized="0"
     inkscape:current-layer="layer1">
    <inkscape:grid
       type="xygrid"
       id="grid9" />
  </sodipodi:namedview>
  <defs
     id="defs2" />
  <g
     inkscape:label="Layer 1"
     inkscape:groupmode="layer"
     id="layer1">
    <g
       id="g3283"
       transform="matrix(1.5620058,0,0,1.5620058,-10.554778,-19.197935)">
      <path
         style="fill:#1a1a1a;fill-opacity:0;stroke:#000000;stroke-width:0.899122px;stroke-linecap:butt;stroke-linejoin:miter;stroke-opacity:1"
         d="M 10,30 H 34.252609"
         id="path44" />
      <path
         style="fill:#1a1a1a;fill-opacity:0;fill-rule:evenodd;stroke:#000000;stroke-width:1.14238;stroke-opacity:1"
         id="path68"
         sodipodi:type="arc"
         sodipodi:cx="14.750427"
         sodipodi:cy="27.040092"
         sodipodi:rx="5.3509092"
         sodipodi:ry="5.1727929"
         sodipodi:start="2.5058413"
         sodipodi:end="4.609781"
         sodipodi:arc-type="arc"
         d="M 10.444948,30.111605 A 5.3509092,5.1727929 0 0 1 9.8563553,24.948708 5.3509092,5.1727929 0 0 1 14.202344,21.894506"
         sodipodi:open="true" />
      <circle
         style="fill:#1a1a1a;fill-opacity:0;fill-rule:evenodd;stroke:#000000;stroke-width:1.7119;stroke-opacity:1"
         id="path68-3"
         sodipodi:type="arc"
         sodipodi:cx="20.795589"
         sodipodi:cy="24.051603"
         sodipodi:rx="7.7035413"
         sodipodi:ry="7.7035413"
         sodipodi:start="3.4030228"
         sodipodi:end="0.13280154"
         sodipodi:open="true"
         sodipodi:arc-type="arc"
         d="m 13.353804,22.060528 a 7.7035413,7.7035413 0 0 1 8.950461,-5.563291 7.7035413,7.7035413 0 0 1 6.127035,8.574404" />
      <path
         style="fill:#1a1a1a;fill-opacity:0;fill-rule:evenodd;stroke:#000000;stroke-width:0.924065;stroke-opacity:1"
         id="path68-3-6"
         sodipodi:type="arc"
         sodipodi:cx="30.267689"
         sodipodi:cy="28.199667"
         sodipodi:rx="4.1670852"
         sodipodi:ry="3.9919953"
         sodipodi:start="4.1659153"
         sodipodi:end="0.5293006"
         sodipodi:arc-type="arc"
         d="m 28.102147,24.789056 a 4.1670852,3.9919953 0 0 1 5.086707,0.563711 4.1670852,3.9919953 0 0 1 0.675698,4.862577"
         sodipodi:open="true" />
      <path
         style="fill:#000000;fill-opacity:1;stroke:#000000;stroke-width:1.226;stroke-miterlimit:4;stroke-dasharray:none;stroke-opacity:1"
         d="m 10.638196,29.352088 c -0.968163,-1.606242 -0.847873,-3.577433 0.309181,-5.066551 0.698119,-0.898474 1.764319,-1.540735 2.888624,-1.740059 0.173938,-0.03084 0.343831,-0.06155 0.377539,-0.06826 0.05891,-0.01172 0.06058,-0.01877 0.0431,-0.182043 -0.01672,-0.156158 -0.009,-0.196978 0.09638,-0.506319 0.06301,-0.185057 0.199875,-0.510675 0.304135,-0.723596 0.344264,-0.703061 0.689143,-1.193831 1.23448,-1.75669 1.048609,-1.082302 2.332372,-1.754259 3.836365,-2.008056 0.424097,-0.07157 1.259053,-0.09777 1.698625,-0.05331 2.654544,0.268505 4.870277,1.977392 5.78554,4.462102 0.146571,0.397904 0.299586,1.011214 0.35671,1.429755 0.05105,0.374025 0.06528,1.139126 0.02924,1.572264 l -0.02118,0.25455 0.07389,0.01451 c 0.04064,0.008 0.189727,0.02834 0.331309,0.04525 0.239485,0.02859 0.260464,0.03589 0.301095,0.104671 l 0.04367,0.07393 0.104122,-0.05312 c 0.102042,-0.05206 0.110769,-0.05225 0.436825,-0.0096 0.182987,0.02392 0.35254,0.04915 0.376785,0.05606 0.03637,0.01037 0.04699,-0.01415 0.06068,-0.140093 0.03069,-0.282212 0.01047,-0.260776 0.297022,-0.314924 0.377736,-0.07138 1.0313,-0.06459 1.403481,0.01457 0.521654,0.110957 0.962352,0.2927 1.386272,0.571699 0.286868,0.188799 0.760826,0.655468 0.955545,0.94085 0.629178,0.922127 0.777063,2.032365 0.408828,3.069248 l -0.06786,0.191068 H 22.217015 10.74542 Z"
         id="path2390" />
    </g>
    <rect
       style="fill:#000000;fill-opacity:1;stroke:none;stroke-width:2.04334;stroke-miterlimit:4;stroke-dasharray:none;stroke-opacity:1"
       id="rect3125"
       width="5"
       height="5"
       x="5.499999"
       y="29.312237" />
    <rect
       style="fill:#000000;fill-opacity:1;stroke:none;stroke-width:2.04334;stroke-miterlimit:4;stroke-dasharray:none;stroke-opacity:1"
       id="rect3125-7"
       width="5"
       height="5"
       x="13.499997"
       y="29.312237" />
    <rect
       style="fill:#000000;fill-opacity:1;stroke:none;stroke-width:2.04334;stroke-miterlimit:4;stroke-dasharray:none;stroke-opacity:1"
       id="rect3125-7-5"
       width="5"
       height="5"
       x="21.500002"
       y="29.312237" />
    <rect
       style="fill:#000000;fill-opacity:1;stroke:none;stroke-width:2.04334;stroke-miterlimit:4;stroke-dasharray:none;stroke-opacity:1"
       id="rect3125-7-5-6"
       width="5"
       height="5"
       x="29.500002"
       y="29.312237" />
    <rect
       style="fill:#000000;fill-opacity:1;stroke:none;stroke-width:2.04334;stroke-miterlimit:4;stroke-dasharray:none;stroke-opacity:1"
       id="rect3125-7-5-6-2"
       width="5"
       height="5"
       x="37.499992"
       y="29.312237" />
    <rect
       style="fill:#000000;fill-opacity:1;stroke:none;stroke-width:2.88972;stroke-miterlimit:4;stroke-dasharray:none;stroke-opacity:1"
       id="rect3125-9"
       width="5"
       height="10"
       x="5.5"
       y="35.313" />
    <rect
       style="fill:#000000;fill-opacity:1;stroke:none;stroke-width:2.04334;stroke-miterlimit:4;stroke-dasharray:none;stroke-opacity:1"
       id="rect3125-7-1"
       width="5"
       height="5"
       x="13.499997"
       y="35.313" />
    <rect
       style="fill:#000000;fill-opacity:1;stroke:none;stroke-width:2.88972;stroke-miterlimit:4;stroke-dasharray:none;stroke-opacity:1"
       id="rect3125-7-5-2"
       width="5"
       height="10"
       x="21.500002"
       y="35.313" />
    <rect
       style="fill:#000000;fill-opacity:1;stroke:none;stroke-width:2.04334;stroke-miterlimit:4;stroke-dasharray:none;stroke-opacity:1"
       id="rect3125-7-5-6-7"
       width="5"
       height="5"
       x="29.500002"
       y="35.313" />
    <rect
       style="fill:#000000;fill-opacity:1;stroke:none;stroke-width:2.88972;stroke-miterlimit:4;stroke-dasharray:none;stroke-opacity:1"
       id="rect3125-7-5-6-2-0"
       width="5"
       height="10"
       x="37.499992"
       y="35.313" />
  </g>
</svg>
