<svg xmlns="http://www.w3.org/2000/svg" width="1034.296" height="548.43" viewBox="0 0 1034.296 548.43">
  <g id="xboxone_macos" transform="translate(-3217.351 -2137.57)">
    <path id="路径_4952" data-name="路径 4952" d="M2.28,0H3.6a.481.481,0,0,0,.48-.48v-6a.227.227,0,0,1,.24-.24H5.784a.469.469,0,0,1,.456.288L9.12-.384A.621.621,0,0,0,9.7,0H11.16a.429.429,0,0,0,.48-.432.818.818,0,0,0-.1-.384L8.76-6.48a.885.885,0,0,1-.12-.408c0-.216.192-.384.5-.576a4.746,4.746,0,0,0,2.5-4.3A4.893,4.893,0,0,0,6.6-16.8H2.28a.481.481,0,0,0-.48.48V-.48A.481.481,0,0,0,2.28,0ZM4.32-9a.227.227,0,0,1-.24-.24v-5.04a.227.227,0,0,1,.24-.24H6.6a2.6,2.6,0,0,1,2.688,2.76A2.6,2.6,0,0,1,6.6-9Zm9.72,9h8.688a.442.442,0,0,0,.48-.48V-1.656a.431.431,0,0,0-.48-.48H16.68c-.24,0-.336-.216-.168-.408l4.464-5.088A6.773,6.773,0,0,0,23.04-12.48a4.385,4.385,0,0,0-4.608-4.56,4.422,4.422,0,0,0-4.68,4.632v.6a.453.453,0,0,0,.48.48H15.48a.481.481,0,0,0,.48-.48v-.36a2.4,2.4,0,0,1,2.472-2.712c1.44,0,2.256.888,2.256,2.472a5.147,5.147,0,0,1-1.536,3.552L13.776-2.64a.8.8,0,0,0-.216.6V-.48A.481.481,0,0,0,14.04,0Z" transform="translate(4180.239 2154.61)" fill="#747474"/>
    <path id="路径_4976" data-name="路径 4976" d="M2.28,0H3.6a.481.481,0,0,0,.48-.48v-6a.227.227,0,0,1,.24-.24H5.784a.469.469,0,0,1,.456.288L9.12-.384A.621.621,0,0,0,9.7,0H11.16a.429.429,0,0,0,.48-.432.818.818,0,0,0-.1-.384L8.76-6.48a.885.885,0,0,1-.12-.408c0-.216.192-.384.5-.576a4.746,4.746,0,0,0,2.5-4.3A4.893,4.893,0,0,0,6.6-16.8H2.28a.481.481,0,0,0-.48.48V-.48A.481.481,0,0,0,2.28,0ZM4.32-9a.227.227,0,0,1-.24-.24v-5.04a.227.227,0,0,1,.24-.24H6.6a2.6,2.6,0,0,1,2.688,2.76A2.6,2.6,0,0,1,6.6-9ZM17.688,0H18.96a.481.481,0,0,0,.48-.48V-16.32a.481.481,0,0,0-.48-.48H17.472a.739.739,0,0,0-.48.216L13.344-13.1a1.084,1.084,0,0,0-.264.792v1.464a.3.3,0,0,0,.528.192l3.384-3.1a.125.125,0,0,1,.216.1V-.48A.481.481,0,0,0,17.688,0Z" transform="translate(4181.724 2222.942)" fill="#747474"/>
    <path id="路径_4979" data-name="路径 4979" d="M4.944,0H6.288a.481.481,0,0,0,.48-.48V-6.744l3.984-9.192a1.143,1.143,0,0,0,.12-.456.425.425,0,0,0-.432-.408H8.856a.45.45,0,0,0-.456.36L5.808-10.056c-.048.144-.1.216-.192.216s-.144-.072-.192-.216L2.832-16.44a.45.45,0,0,0-.456-.36H.792a.425.425,0,0,0-.432.408,1.143,1.143,0,0,0,.12.456L4.464-6.744V-.48A.481.481,0,0,0,4.944,0Z" transform="translate(4181.724 2290.942)" fill="#747474"/>
    <path id="路径_5025" data-name="路径 5025" d="M.792,0H2.424c.216,0,.312-.072.456-.36L5.76-6.168c.1-.192.144-.24.192-.24s.1.048.192.24L9.048-.36c.144.288.24.36.456.36h1.632a.416.416,0,0,0,.432-.432.758.758,0,0,0-.12-.384l-4.032-7.8a.861.861,0,0,1-.1-.264A.553.553,0,0,1,7.392-9.1l3.672-6.888a.885.885,0,0,0,.12-.408.426.426,0,0,0-.432-.408H9.216c-.216,0-.312.072-.456.36L6.12-11.328c-.048.1-.12.192-.168.192s-.12-.1-.168-.192L3.144-16.44c-.144-.288-.24-.36-.456-.36H1.152a.426.426,0,0,0-.432.408.9.9,0,0,0,.12.408L4.512-9.1a.553.553,0,0,1,.072.216.692.692,0,0,1-.1.264L.48-.816a.83.83,0,0,0-.12.408A.426.426,0,0,0,.792,0Z" transform="translate(4181.724 2427.942)" fill="#747474"/>
    <path id="路径_5070" data-name="路径 5070" d="M.768,0H2.16a.483.483,0,0,0,.456-.36L3.672-4.032a.461.461,0,0,1,.456-.336H8.112a.442.442,0,0,1,.456.336L9.624-.36A.483.483,0,0,0,10.08,0h1.392a.38.38,0,0,0,.408-.336,1.331,1.331,0,0,0-.072-.408L7.416-16.44a.462.462,0,0,0-.456-.36H5.28a.462.462,0,0,0-.456.36L.432-.744A1.331,1.331,0,0,0,.36-.336.38.38,0,0,0,.768,0ZM4.632-6.6c-.144,0-.24-.072-.192-.264L6-13.56c.024-.1.048-.144.1-.144h.048c.048,0,.072.048.1.144l1.56,6.7c.048.192-.048.264-.192.264Z" transform="translate(4181.724 2496.942)" fill="#747474"/>
    <path id="路径_5028" data-name="路径 5028" d="M2.28,0H6.72a4.79,4.79,0,0,0,5.04-4.9,5.024,5.024,0,0,0-1.7-3.672.314.314,0,0,1,0-.528,4.524,4.524,0,0,0,1.368-3.24A4.374,4.374,0,0,0,6.72-16.8H2.28a.481.481,0,0,0-.48.48V-.48A.481.481,0,0,0,2.28,0ZM4.272-9.888a.227.227,0,0,1-.24-.24V-14.28a.227.227,0,0,1,.24-.24H6.72a2.066,2.066,0,0,1,2.352,2.184A2.256,2.256,0,0,1,6.72-9.888Zm0,7.608a.227.227,0,0,1-.24-.24V-7.488a.215.215,0,0,1,.24-.24H6.72A2.718,2.718,0,0,1,9.408-4.9,2.537,2.537,0,0,1,6.72-2.28Z" transform="translate(4181.724 2359.942)" fill="#747474"/>
    <path id="路径_4956" data-name="路径 4956" d="M2.28,0H9.7a.481.481,0,0,0,.48-.48V-1.8a.481.481,0,0,0-.48-.48H4.32a.227.227,0,0,1-.24-.24v-13.8a.481.481,0,0,0-.48-.48H2.28a.481.481,0,0,0-.48.48V-.48A.481.481,0,0,0,2.28,0Zm9.7,0h8.688a.442.442,0,0,0,.48-.48V-1.656a.431.431,0,0,0-.48-.48H14.616c-.24,0-.336-.216-.168-.408l4.464-5.088a6.773,6.773,0,0,0,2.064-4.848,4.385,4.385,0,0,0-4.608-4.56,4.422,4.422,0,0,0-4.68,4.632v.6a.453.453,0,0,0,.48.48h1.248a.481.481,0,0,0,.48-.48v-.36a2.4,2.4,0,0,1,2.472-2.712c1.44,0,2.256.888,2.256,2.472a5.147,5.147,0,0,1-1.536,3.552L11.712-2.64a.8.8,0,0,0-.216.6V-.48A.481.481,0,0,0,11.976,0Z" transform="translate(3257 2154.61)" fill="#747474"/>
    <path id="路径_4983" data-name="路径 4983" d="M2.28,0H9.7a.481.481,0,0,0,.48-.48V-1.8a.481.481,0,0,0-.48-.48H4.32a.227.227,0,0,1-.24-.24v-13.8a.481.481,0,0,0-.48-.48H2.28a.481.481,0,0,0-.48.48V-.48A.481.481,0,0,0,2.28,0ZM15.624,0H16.9a.481.481,0,0,0,.48-.48V-16.32a.481.481,0,0,0-.48-.48H15.408a.739.739,0,0,0-.48.216L11.28-13.1a1.084,1.084,0,0,0-.264.792v1.464a.3.3,0,0,0,.528.192l3.384-3.1a.125.125,0,0,1,.216.1V-.48A.481.481,0,0,0,15.624,0Z" transform="translate(3260 2221.942)" fill="#747474"/>
    <path id="路径_5076" data-name="路径 5076" d="M2.28,0H3.6a.481.481,0,0,0,.48-.48v-6a.227.227,0,0,1,.24-.24H5.784a.469.469,0,0,1,.456.288L9.12-.384A.621.621,0,0,0,9.7,0H11.16a.429.429,0,0,0,.48-.432.818.818,0,0,0-.1-.384L8.76-6.48a.885.885,0,0,1-.12-.408c0-.216.192-.384.5-.576a4.746,4.746,0,0,0,2.5-4.3A4.893,4.893,0,0,0,6.6-16.8H2.28a.481.481,0,0,0-.48.48V-.48A.481.481,0,0,0,2.28,0ZM4.32-9a.227.227,0,0,1-.24-.24v-5.04a.227.227,0,0,1,.24-.24H6.6a2.6,2.6,0,0,1,2.688,2.76A2.6,2.6,0,0,1,6.6-9ZM18.624.24a4.956,4.956,0,0,0,5.04-5.064,4.2,4.2,0,0,0-1.9-3.72c-.216-.144-.216-.36.024-.576A4.231,4.231,0,0,0,23.3-12.408a4.371,4.371,0,0,0-4.632-4.632,4.422,4.422,0,0,0-4.728,4.392v.6a.481.481,0,0,0,.48.48h1.3a.481.481,0,0,0,.48-.48v-.36a2.356,2.356,0,0,1,2.472-2.472,2.228,2.228,0,0,1,2.352,2.472,2.352,2.352,0,0,1-2.4,2.52h-.48a.481.481,0,0,0-.48.48v1.272a.481.481,0,0,0,.48.48h.48a2.627,2.627,0,0,1,2.76,2.832,2.685,2.685,0,0,1-2.76,2.9A2.684,2.684,0,0,1,15.84-4.752V-4.92a.481.481,0,0,0-.48-.48H14.04a.481.481,0,0,0-.48.48v.408A4.883,4.883,0,0,0,18.624.24Z" transform="translate(3808.154 2617.454)" fill="#747474"/>
    <path id="路径_5000" data-name="路径 5000" d="M2.28,0H3.552a.481.481,0,0,0,.48-.48V-12.528a.11.11,0,0,1,.1-.12c.048,0,.072.048.1.1L7.656-.408A.471.471,0,0,0,8.16,0H9.168a.471.471,0,0,0,.5-.408L13.1-12.552c.024-.048.048-.1.1-.1a.11.11,0,0,1,.1.12V-.48a.481.481,0,0,0,.48.48h1.272a.481.481,0,0,0,.48-.48V-16.32a.481.481,0,0,0-.48-.48H12.6a.471.471,0,0,0-.5.408L8.784-4.32a.122.122,0,0,1-.12.1.122.122,0,0,1-.12-.1L5.232-16.392a.471.471,0,0,0-.5-.408H2.28a.481.481,0,0,0-.48.48V-.48A.481.481,0,0,0,2.28,0ZM19.608,0h7.8a.481.481,0,0,0,.48-.48V-1.8a.481.481,0,0,0-.48-.48h-5.76a.227.227,0,0,1-.24-.24V-7.2a.227.227,0,0,1,.24-.24H27.1a.481.481,0,0,0,.48-.48V-9.24a.481.481,0,0,0-.48-.48H21.648a.227.227,0,0,1-.24-.24v-4.32a.227.227,0,0,1,.24-.24H27.36a.481.481,0,0,0,.48-.48v-1.32a.481.481,0,0,0-.48-.48H19.608a.481.481,0,0,0-.48.48V-.48A.481.481,0,0,0,19.608,0ZM38.352-4.632l-4.608-11.76c-.12-.312-.24-.408-.5-.408H31.248a.481.481,0,0,0-.48.48V-.48a.481.481,0,0,0,.48.48h1.224a.481.481,0,0,0,.48-.48V-12.336c0-.1.048-.168.12-.168s.12.048.192.24L37.872-.408c.12.312.24.408.5.408h1.992a.481.481,0,0,0,.48-.48V-16.32a.481.481,0,0,0-.48-.48H39.144a.481.481,0,0,0-.48.48V-4.56c0,.1-.048.168-.12.168S38.424-4.44,38.352-4.632ZM49.728.24c3.144,0,5.4-1.872,5.4-5.472V-16.32a.481.481,0,0,0-.48-.48h-1.32a.481.481,0,0,0-.48.48V-4.992a2.775,2.775,0,0,1-3.12,2.952c-1.8,0-3.12-.792-3.12-2.952V-16.32a.481.481,0,0,0-.48-.48h-1.32a.481.481,0,0,0-.48.48V-5.232C44.328-1.632,46.392.24,49.728.24Z" transform="translate(3750.734 2185.576)" fill="#747474"/>
    <path id="路径_4966" data-name="路径 4966" d="M0,0H222.144" transform="translate(3299.356 2146.979)" fill="none" stroke="#747474" stroke-linecap="round" stroke-width="2"/>
    <path id="路径_5001" data-name="路径 5001" d="M0,0H209.144" transform="translate(3299.356 2215.312)" fill="none" stroke="#747474" stroke-linecap="round" stroke-width="2"/>
    <path id="路径_5002" data-name="路径 5002" d="M0,0H205.144" transform="translate(3299.356 2284.312)" fill="none" stroke="#747474" stroke-linecap="round" stroke-width="2"/>
    <path id="路径_5045" data-name="路径 5045" d="M0,0H216.144" transform="translate(3299.356 2356.975)" fill="none" stroke="#747474" stroke-linecap="round" stroke-width="2"/>
    <path id="路径_5046" data-name="路径 5046" d="M0,0H291.144" transform="translate(3299.356 2459.975)" fill="none" stroke="#747474" stroke-linecap="round" stroke-width="2"/>
    <path id="路径_3692" data-name="路径 3692" d="M10.148,0,38.3,32.427,68.6,67.446" transform="translate(3891.548 2352.683)" fill="none" stroke="#747474" stroke-linecap="round" stroke-width="2"/>
    <path id="路径_5003" data-name="路径 5003" d="M217.141,0H0" transform="translate(3947.5 2283.643)" fill="none" stroke="#747474" stroke-linecap="round" stroke-width="2"/>
    <path id="路径_5047" data-name="路径 5047" d="M195.141,0H0" transform="translate(3969.5 2351.975)" fill="none" stroke="#747474" stroke-linecap="round" stroke-width="2"/>
    <path id="路径_5048" data-name="路径 5048" d="M20.019,0H0" transform="translate(3881.481 2351.975)" fill="none" stroke="#747474" stroke-linecap="round" stroke-width="2"/>
    <path id="路径_5049" data-name="路径 5049" d="M205.627,0H0" transform="translate(3960.5 2420.306)" fill="none" stroke="#747474" stroke-linecap="round" stroke-width="2"/>
    <path id="路径_5077" data-name="路径 5077" d="M187.627,0H0" transform="translate(3978.5 2488.638)" fill="none" stroke="#747474" stroke-linecap="round" stroke-width="2"/>
    <path id="路径_5004" data-name="路径 5004" d="M0,25.857,22.288,0" transform="translate(3924.5 2283.643)" fill="none" stroke="#747474" stroke-linecap="round" stroke-width="2"/>
    <path id="路径_3693" data-name="路径 3693" d="M-2.008,0,60.533,72.034" transform="translate(3917.958 2416.558)" fill="none" stroke="#747474" stroke-linecap="round" stroke-width="2"/>
    <path id="路径_4967" data-name="路径 4967" d="M0,0,68.572,77.777" transform="translate(3521.928 2147.723)" fill="none" stroke="#747474" stroke-linecap="round" stroke-width="2"/>
    <path id="路径_5005" data-name="路径 5005" d="M0,0,61,69" transform="translate(3504.5 2284.5)" fill="none" stroke="#747474" stroke-linecap="round" stroke-width="2"/>
    <path id="路径_4968" data-name="路径 4968" d="M220.141,0H0" transform="translate(3944.5 2146.979)" fill="none" stroke="#747474" stroke-linecap="round" stroke-width="2"/>
    <path id="路径_5006" data-name="路径 5006" d="M206.141,0H0" transform="translate(3958.5 2215.312)" fill="none" stroke="#747474" stroke-linecap="round" stroke-width="2"/>
    <path id="路径_5007" data-name="路径 5007" d="M0,0V132.558" transform="translate(3779.217 2201.942)" fill="none" stroke="#747474" stroke-linecap="round" stroke-width="2"/>
    <path id="路径_5050" data-name="路径 5050" d="M0,0V132" transform="translate(3820.523 2452.5)" fill="none" stroke="#747474" stroke-linecap="round" stroke-width="2"/>
    <path id="路径_5078" data-name="路径 5078" d="M208.627,0H0" transform="translate(3957.5 2556.638)" fill="none" stroke="#747474" stroke-linecap="round" stroke-width="2"/>
    <path id="路径_3694" data-name="路径 3694" d="M-2.008,0,85.6,100.438" transform="translate(3871.958 2456.558)" fill="none" stroke="#747474" stroke-linecap="round" stroke-width="2"/>
    <g id="xboxone" transform="translate(6860 10864)">
      <g id="组_4416" data-name="组 4416" transform="translate(-3645 -8948)" opacity="0.5">
        <path id="联合_14" data-name="联合 14" d="M487.558,363.874c-.508-.509-18.834-29.526-57.523-30.8-36.692-1.206-97.851-.125-104.069-.01v.01l-.257,0-.257,0v-.01c-6.218-.115-67.377-1.2-104.068.01-38.689,1.273-57.016,30.29-57.524,30.8C114.519,432.5,90.241,459.322,76.3,459.323c-18.581,0-44.035-7.127-58.8-30.036S-7.7,370.236,7.322,281.4,56.376,116.789,66.109,94.2,84.993,63.729,84.993,63.729A31.892,31.892,0,0,0,99.474,45.308c3.824-12.976,15.641-17.726,15.641-17.726s1.738-1.39,32.44-15.525S210.925.124,210.925.124L237.494,12.9h176.43L440.491.124s32.671-2.2,63.372,11.933S536.3,27.582,536.3,27.582s11.818,4.75,15.641,17.726a31.892,31.892,0,0,0,14.482,18.421s9.152,7.878,18.884,30.469,43.769,98.377,58.785,187.207,4.582,124.976-10.181,147.883-40.216,30.036-58.8,30.036C561.175,459.322,536.9,432.5,487.558,363.874Z" transform="translate(192.5 308.677)" fill="none" stroke="#747474" stroke-width="4"/>
        <g id="椭圆_2186" data-name="椭圆 2186" transform="translate(618.878 415.927)" fill="none" stroke="#747474" stroke-width="3">
          <circle cx="21.941" cy="21.941" r="21.941" stroke="none"/>
          <circle cx="21.941" cy="21.941" r="20.441" fill="none"/>
        </g>
        <g id="椭圆_2187" data-name="椭圆 2187" transform="translate(548.668 421.778)" fill="none" stroke="#747474" stroke-width="2">
          <circle cx="16.09" cy="16.09" r="16.09" stroke="none"/>
          <circle cx="16.09" cy="16.09" r="15.09" fill="none"/>
        </g>
        <g id="椭圆_2188" data-name="椭圆 2188" transform="translate(453.592 421.778)" fill="none" stroke="#747474" stroke-width="2">
          <circle cx="16.09" cy="16.09" r="16.09" stroke="none"/>
          <circle cx="16.09" cy="16.09" r="15.09" fill="none"/>
        </g>
        <g id="椭圆_2189" data-name="椭圆 2189" transform="translate(557.444 489.062)" fill="none" stroke="#747474" stroke-width="4">
          <circle cx="46.806" cy="46.806" r="46.806" stroke="none"/>
          <circle cx="46.806" cy="46.806" r="44.806" fill="none"/>
        </g>
        <g id="椭圆_2190" data-name="椭圆 2190" transform="translate(304.397 391.061)" fill="none" stroke="#747474" stroke-width="4">
          <circle cx="46.806" cy="46.806" r="46.806" stroke="none"/>
          <circle cx="46.806" cy="46.806" r="44.806" fill="none"/>
        </g>
        <g id="椭圆_2191" data-name="椭圆 2191" transform="translate(662.759 372.046)" fill="none" stroke="#747474" stroke-width="3">
          <circle cx="21.941" cy="21.941" r="21.941" stroke="none"/>
          <circle cx="21.941" cy="21.941" r="20.441" fill="none"/>
        </g>
        <g id="椭圆_2192" data-name="椭圆 2192" transform="translate(706.64 415.927)" fill="none" stroke="#747474" stroke-width="3">
          <circle cx="21.941" cy="21.941" r="21.941" stroke="none"/>
          <circle cx="21.941" cy="21.941" r="20.441" fill="none"/>
        </g>
        <g id="椭圆_2193" data-name="椭圆 2193" transform="translate(662.759 459.808)" fill="none" stroke="#747474" stroke-width="3">
          <circle cx="21.941" cy="21.941" r="21.941" stroke="none"/>
          <circle cx="21.941" cy="21.941" r="20.441" fill="none"/>
        </g>
        <g id="联合_15" data-name="联合 15" transform="translate(378.995 490.525)" fill="none">
          <path d="M39.1,103.852a4,4,0,0,1-4-4v-31.1H4a4,4,0,0,1-4-4V39.1a4,4,0,0,1,4-4H35.1V4a4,4,0,0,1,4-4H64.747a4,4,0,0,1,4,4V35.1h31.1a4,4,0,0,1,4,4V64.747a4,4,0,0,1-4,4h-31.1v31.1a4,4,0,0,1-4,4Z" stroke="none"/>
          <path d="M 64.74691009521484 101.8519058227539 C 65.84998321533203 101.8519058227539 66.74739837646484 100.9548950195313 66.74739837646484 99.85231018066406 L 66.74739837646484 68.74739837646484 L 66.74739837646484 66.74739837646484 L 68.74739837646484 66.74739837646484 L 99.85231018066406 66.74739837646484 C 100.9548950195313 66.74739837646484 101.8519058227539 65.84998321533203 101.8519058227539 64.74691009521484 L 101.8519058227539 39.10499954223633 C 101.8519058227539 38.00192260742188 100.9548950195313 37.10450744628906 99.85231018066406 37.10450744628906 L 68.74739837646484 37.10450744628906 L 66.74739837646484 37.10450744628906 L 66.74739837646484 35.10450744628906 L 66.74739837646484 3.999598979949951 C 66.74739837646484 2.897014379501343 65.84998321533203 1.999999046325684 64.74691009521484 1.999999046325684 L 39.10499954223633 1.999999046325684 C 38.00192260742188 1.999999046325684 37.10450744628906 2.897014379501343 37.10450744628906 3.999598979949951 L 37.10450744628906 35.10450744628906 L 37.10450744628906 37.10450744628906 L 35.10450744628906 37.10450744628906 L 3.999598979949951 37.10450744628906 C 2.897014379501343 37.10450744628906 1.999999046325684 38.00192260742188 1.999999046325684 39.10499954223633 L 1.999999046325684 64.74691009521484 C 1.999999046325684 65.84998321533203 2.897014379501343 66.74739837646484 3.999598979949951 66.74739837646484 L 35.10450744628906 66.74739837646484 L 37.10450744628906 66.74739837646484 L 37.10450744628906 68.74739837646484 L 37.10450744628906 99.85231018066406 C 37.10450744628906 100.9548950195313 38.00192260742188 101.8519058227539 39.10499954223633 101.8519058227539 L 64.74691009521484 101.8519058227539 M 64.74691009521484 103.8519058227539 L 39.10499954223633 103.8519058227539 C 36.8955078125 103.8519058227539 35.10450744628906 102.060905456543 35.10450744628906 99.85231018066406 L 35.10450744628906 68.74739837646484 L 3.999598979949951 68.74739837646484 C 1.790999054908752 68.74739837646484 -9.34776892336231e-07 66.95639801025391 -9.34776892336231e-07 64.74691009521484 L -9.34776892336231e-07 39.10499954223633 C -9.34776892336231e-07 36.8955078125 1.790999054908752 35.10450744628906 3.999598979949951 35.10450744628906 L 35.10450744628906 35.10450744628906 L 35.10450744628906 3.999598979949951 C 35.10450744628906 1.790999054908752 36.8955078125 -9.34776892336231e-07 39.10499954223633 -9.34776892336231e-07 L 64.74691009521484 -9.34776892336231e-07 C 66.95639801025391 -9.34776892336231e-07 68.74739837646484 1.790999054908752 68.74739837646484 3.999598979949951 L 68.74739837646484 35.10450744628906 L 99.85231018066406 35.10450744628906 C 102.060905456543 35.10450744628906 103.8519058227539 36.8955078125 103.8519058227539 39.10499954223633 L 103.8519058227539 64.74691009521484 C 103.8519058227539 66.95639801025391 102.060905456543 68.74739837646484 99.85231018066406 68.74739837646484 L 68.74739837646484 68.74739837646484 L 68.74739837646484 99.85231018066406 C 68.74739837646484 102.060905456543 66.95639801025391 103.8519058227539 64.74691009521484 103.8519058227539 Z" stroke="none" fill="#747474"/>
        </g>
        <circle id="椭圆_2181" data-name="椭圆 2181" cx="27.097" cy="27.097" r="27.097" transform="translate(577.406 509.023)" fill="none" stroke="#747474" stroke-width="2"/>
        <circle id="椭圆_2181-2" data-name="椭圆 2181" cx="27.097" cy="27.097" r="27.097" transform="translate(324.359 411.022)" fill="none" stroke="#747474" stroke-width="2"/>
        <g id="椭圆_2223" data-name="椭圆 2223" transform="translate(493.085 347.18)" fill="none" stroke="#747474" stroke-width="2">
          <circle cx="25.597" cy="25.597" r="25.597" stroke="none"/>
          <circle cx="25.597" cy="25.597" r="24.597" fill="none"/>
        </g>
      </g>
    </g>
    <path id="路径_5008" data-name="路径 5008" d="M27.315,30.189,0,0" transform="translate(3508.185 2215.312)" fill="none" stroke="#747474" stroke-linecap="round" stroke-width="2"/>
    <path id="路径_4969" data-name="路径 4969" d="M68.572,0,0,77.777" transform="translate(3876.185 2147.723)" fill="none" stroke="#747474" stroke-linecap="round" stroke-width="2"/>
    <path id="路径_5009" data-name="路径 5009" d="M0,30.189,27.315,0" transform="translate(3931.185 2215.312)" fill="none" stroke="#747474" stroke-linecap="round" stroke-width="2"/>
    <path id="路径_5010" data-name="路径 5010" d="M2.28,0H9.7a.481.481,0,0,0,.48-.48V-1.8a.481.481,0,0,0-.48-.48H4.32a.227.227,0,0,1-.24-.24v-13.8a.481.481,0,0,0-.48-.48H2.28a.481.481,0,0,0-.48.48V-.48A.481.481,0,0,0,2.28,0ZM16.56.24A4.956,4.956,0,0,0,21.6-4.824a4.2,4.2,0,0,0-1.9-3.72c-.216-.144-.216-.36.024-.576a4.231,4.231,0,0,0,1.512-3.288,4.371,4.371,0,0,0-4.632-4.632,4.422,4.422,0,0,0-4.728,4.392v.6a.481.481,0,0,0,.48.48h1.3a.481.481,0,0,0,.48-.48v-.36a2.356,2.356,0,0,1,2.472-2.472,2.228,2.228,0,0,1,2.352,2.472,2.352,2.352,0,0,1-2.4,2.52h-.48a.481.481,0,0,0-.48.48v1.272a.481.481,0,0,0,.48.48h.48a2.627,2.627,0,0,1,2.76,2.832,2.685,2.685,0,0,1-2.76,2.9,2.684,2.684,0,0,1-2.784-2.832V-4.92a.481.481,0,0,0-.48-.48h-1.32a.481.481,0,0,0-.48.48v.408A4.883,4.883,0,0,0,16.56.24Z" transform="translate(3255.848 2292.454)" fill="#747474"/>
    <path id="路径_5059" data-name="路径 5059" d="M2.28,0H6.72a4.976,4.976,0,0,0,4.656-2.76c.624-1.3.672-3.408.672-5.64s-.048-4.344-.672-5.64A4.976,4.976,0,0,0,6.72-16.8H2.28a.481.481,0,0,0-.48.48V-.48A.481.481,0,0,0,2.28,0ZM4.32-2.28a.227.227,0,0,1-.24-.24V-14.28a.227.227,0,0,1,.24-.24h2.4a2.861,2.861,0,0,1,2.5,1.464c.456.864.48,2.88.48,4.656s-.024,3.792-.48,4.656A2.861,2.861,0,0,1,6.72-2.28ZM15.048-5.544H20.88a.481.481,0,0,0,.48-.48v-1.2a.481.481,0,0,0-.48-.48H15.048a.481.481,0,0,0-.48.48v1.2A.481.481,0,0,0,15.048-5.544Zm14.112-6.7c-1.944,0-2.3.912-2.808.912-.192,0-.336-.12-.48-.5-.048-.12-.144-.168-.336-.168H24.72a.481.481,0,0,0-.48.48V4.32a.481.481,0,0,0,.48.48h1.2a.481.481,0,0,0,.48-.48V.24c0-.552.12-.768.432-.768.432,0,.936.768,2.52.768A4.051,4.051,0,0,0,33.024-1.8,8.5,8.5,0,0,0,33.792-6a9.5,9.5,0,0,0-.744-4.176A4.115,4.115,0,0,0,29.16-12.24Zm-.216,2.16a2.423,2.423,0,0,1,2.256,1.1A6.036,6.036,0,0,1,31.632-6,6.328,6.328,0,0,1,31.2-3.024a2.4,2.4,0,0,1-2.256,1.1,2.423,2.423,0,0,1-2.256-1.1A6.036,6.036,0,0,1,26.256-6a6.036,6.036,0,0,1,.432-2.976A2.423,2.423,0,0,1,28.944-10.08ZM40.248.24c1.776,0,2.376-.912,2.808-.912.24,0,.36.288.48.5A.363.363,0,0,0,43.872,0h.816a.481.481,0,0,0,.48-.48V-8.4c0-2.52-1.512-3.84-4.368-3.84-2.76,0-4.368,1.272-4.368,3.432a.431.431,0,0,0,.48.48h1.1c.384,0,.552-.12.552-.408,0-1.032.816-1.608,2.208-1.608,1.44,0,2.232.648,2.232,1.872v.984a.227.227,0,0,1-.24.24H40.2c-2.736,0-4.32,1.272-4.32,3.672C35.88-1.272,37.608.24,40.248.24Zm.168-1.992c-1.512,0-2.3-.648-2.3-1.872,0-1.128.744-1.656,2.328-1.656h2.52a.227.227,0,0,1,.24.24v.768C43.2-2.568,42.312-1.752,40.416-1.752ZM52.368.24c1.944,0,2.3-.912,2.808-.912.192,0,.312.12.48.5.048.12.144.168.336.168h.816a.481.481,0,0,0,.48-.48V-16.56a.481.481,0,0,0-.48-.48h-1.2a.481.481,0,0,0-.48.48v4.32c0,.552-.12.768-.432.768-.432,0-.936-.768-2.52-.768A4.051,4.051,0,0,0,48.5-10.2,8.784,8.784,0,0,0,47.736-6a9.5,9.5,0,0,0,.744,4.176A4.236,4.236,0,0,0,52.368.24Zm.216-2.16a2.423,2.423,0,0,1-2.256-1.1A6.036,6.036,0,0,1,49.9-6a6.328,6.328,0,0,1,.432-2.976,2.4,2.4,0,0,1,2.256-1.1,2.423,2.423,0,0,1,2.256,1.1A6.036,6.036,0,0,1,55.272-6a6.036,6.036,0,0,1-.432,2.976A2.423,2.423,0,0,1,52.584-1.92Z" transform="translate(3224.734 2466.576)" fill="#747474"/>
    <path id="路径_5060" data-name="路径 5060" d="M-65.9,0h7.416a.481.481,0,0,0,.48-.48V-1.8a.481.481,0,0,0-.48-.48h-5.376a.227.227,0,0,1-.24-.24v-13.8a.481.481,0,0,0-.48-.48H-65.9a.481.481,0,0,0-.48.48V-.48A.481.481,0,0,0-65.9,0Zm8.856-5.544h5.832a.481.481,0,0,0,.48-.48v-1.2a.481.481,0,0,0-.48-.48h-5.832a.481.481,0,0,0-.48.48v1.2A.481.481,0,0,0-57.048-5.544ZM-43.128.24c3.168,0,5.352-1.968,5.352-4.848a5.057,5.057,0,0,0-4.2-5.04c-2.808-.624-3.792-1.392-3.792-2.88,0-1.368,1.032-2.232,2.736-2.232s2.736.84,2.736,2.28v.312a.481.481,0,0,0,.48.48h1.32a.481.481,0,0,0,.48-.48v-.312c0-2.832-1.9-4.56-4.968-4.56-2.952,0-5.136,1.7-5.136,4.56,0,2.616,1.68,4.176,4.512,4.824,2.472.576,3.48,1.488,3.48,3.144,0,1.464-1.224,2.472-2.976,2.472-1.872,0-3.168-1.128-3.168-2.76v-.384a.481.481,0,0,0-.48-.48H-48.1a.481.481,0,0,0-.48.48V-4.8C-48.576-1.752-46.416.24-43.128.24ZM-30.1,0h1.32a.481.481,0,0,0,.48-.48v-1.2a.481.481,0,0,0-.48-.48H-30.1c-1.3,0-1.92-.528-1.92-1.68V-9.48a.227.227,0,0,1,.24-.24h2.76a.481.481,0,0,0,.48-.48v-1.2a.481.481,0,0,0-.48-.48h-2.76a.227.227,0,0,1-.24-.24v-3.72a.481.481,0,0,0-.48-.48h-1.2a.481.481,0,0,0-.48.48v3.72a.227.227,0,0,1-.24.24H-36.1a.481.481,0,0,0-.48.48v1.2a.481.481,0,0,0,.48.48h1.68a.227.227,0,0,1,.24.24v5.64C-34.176-1.3-32.808,0-30.1,0Zm4.128-14.616h1.632A.379.379,0,0,0-23.952-15v-1.656a.4.4,0,0,0-.384-.384h-1.632a.4.4,0,0,0-.384.384V-15A.379.379,0,0,0-25.968-14.616ZM-25.776,0h1.248a.481.481,0,0,0,.48-.48V-11.52a.481.481,0,0,0-.48-.48h-1.248a.481.481,0,0,0-.48.48V-.48A.481.481,0,0,0-25.776,0Zm9.456.24a4.867,4.867,0,0,0,3.048-.96,3.929,3.929,0,0,0,1.464-3.12c0-.312-.12-.48-.36-.48h-1.368c-.288,0-.456.144-.456.408a1.861,1.861,0,0,1-.648,1.464,2.75,2.75,0,0,1-1.68.528,2.7,2.7,0,0,1-2.208-.96,5.163,5.163,0,0,1-.6-3.12c0-1.68.12-2.52.624-3.192a2.7,2.7,0,0,1,2.16-.888,2.524,2.524,0,0,1,1.608.5,1.912,1.912,0,0,1,.72,1.512.415.415,0,0,0,.456.384h1.272a.426.426,0,0,0,.408-.48,4.06,4.06,0,0,0-1.32-3,4.71,4.71,0,0,0-3.144-1.08A5,5,0,0,0-19.9-10.92C-21.1-9.672-21.36-8.064-21.36-6c0,1.992.192,3.768,1.512,4.968A4.984,4.984,0,0,0-16.32.24ZM-.5-.84-5.112-6a.375.375,0,0,1,0-.576L-.648-11.16a.51.51,0,0,0,.168-.36.472.472,0,0,0-.5-.48H-2.4a1.047,1.047,0,0,0-.6.36L-6.84-7.632c-.1.1-.144.12-.192.12-.072,0-.12-.048-.12-.168v-8.88a.481.481,0,0,0-.48-.48h-1.2a.481.481,0,0,0-.48.48V-.48a.481.481,0,0,0,.48.48h1.2a.481.481,0,0,0,.48-.48v-4.2c0-.12.048-.168.12-.168.048,0,.1.024.192.12l3.768,4.3a.98.98,0,0,0,.7.432H-.84a.473.473,0,0,0,.5-.48A.464.464,0,0,0-.5-.84Z" transform="translate(3283.734 2363.576)" fill="#747474"/>
    <path id="路径_5081" data-name="路径 5081" d="M2.28,0H3.6a.481.481,0,0,0,.48-.48v-6a.227.227,0,0,1,.24-.24H5.784a.469.469,0,0,1,.456.288L9.12-.384A.621.621,0,0,0,9.7,0H11.16a.429.429,0,0,0,.48-.432.818.818,0,0,0-.1-.384L8.76-6.48a.885.885,0,0,1-.12-.408c0-.216.192-.384.5-.576a4.746,4.746,0,0,0,2.5-4.3A4.893,4.893,0,0,0,6.6-16.8H2.28a.481.481,0,0,0-.48.48V-.48A.481.481,0,0,0,2.28,0ZM4.32-9a.227.227,0,0,1-.24-.24v-5.04a.227.227,0,0,1,.24-.24H6.6a2.6,2.6,0,0,1,2.688,2.76A2.6,2.6,0,0,1,6.6-9ZM13.2-5.544h5.832a.481.481,0,0,0,.48-.48v-1.2a.481.481,0,0,0-.48-.48H13.2a.481.481,0,0,0-.48.48v1.2A.481.481,0,0,0,13.2-5.544ZM27.12.24c3.168,0,5.352-1.968,5.352-4.848a5.057,5.057,0,0,0-4.2-5.04c-2.808-.624-3.792-1.392-3.792-2.88,0-1.368,1.032-2.232,2.736-2.232s2.736.84,2.736,2.28v.312a.481.481,0,0,0,.48.48h1.32a.481.481,0,0,0,.48-.48v-.312c0-2.832-1.9-4.56-4.968-4.56-2.952,0-5.136,1.7-5.136,4.56,0,2.616,1.68,4.176,4.512,4.824,2.472.576,3.48,1.488,3.48,3.144,0,1.464-1.224,2.472-2.976,2.472-1.872,0-3.168-1.128-3.168-2.76v-.384a.481.481,0,0,0-.48-.48H22.152a.481.481,0,0,0-.48.48V-4.8C21.672-1.752,23.832.24,27.12.24ZM40.152,0h1.32a.481.481,0,0,0,.48-.48v-1.2a.481.481,0,0,0-.48-.48h-1.32c-1.3,0-1.92-.528-1.92-1.68V-9.48a.227.227,0,0,1,.24-.24h2.76a.481.481,0,0,0,.48-.48v-1.2a.481.481,0,0,0-.48-.48h-2.76a.227.227,0,0,1-.24-.24v-3.72a.481.481,0,0,0-.48-.48h-1.2a.481.481,0,0,0-.48.48v3.72a.227.227,0,0,1-.24.24h-1.68a.481.481,0,0,0-.48.48v1.2a.481.481,0,0,0,.48.48h1.68a.227.227,0,0,1,.24.24v5.64C36.072-1.3,37.44,0,40.152,0ZM44.28-14.616h1.632A.379.379,0,0,0,46.3-15v-1.656a.4.4,0,0,0-.384-.384H44.28a.4.4,0,0,0-.384.384V-15A.379.379,0,0,0,44.28-14.616ZM44.472,0H45.72a.481.481,0,0,0,.48-.48V-11.52a.481.481,0,0,0-.48-.48H44.472a.481.481,0,0,0-.48.48V-.48A.481.481,0,0,0,44.472,0Zm9.456.24a4.867,4.867,0,0,0,3.048-.96A3.929,3.929,0,0,0,58.44-3.84c0-.312-.12-.48-.36-.48H56.712c-.288,0-.456.144-.456.408a1.861,1.861,0,0,1-.648,1.464,2.75,2.75,0,0,1-1.68.528,2.7,2.7,0,0,1-2.208-.96A5.163,5.163,0,0,1,51.12-6c0-1.68.12-2.52.624-3.192a2.7,2.7,0,0,1,2.16-.888,2.524,2.524,0,0,1,1.608.5,1.912,1.912,0,0,1,.72,1.512.415.415,0,0,0,.456.384H57.96a.426.426,0,0,0,.408-.48,4.06,4.06,0,0,0-1.32-3A4.71,4.71,0,0,0,53.9-12.24a5,5,0,0,0-3.552,1.32c-1.2,1.248-1.464,2.856-1.464,4.92,0,1.992.192,3.768,1.512,4.968A4.984,4.984,0,0,0,53.928.24ZM69.744-.84,65.136-6a.375.375,0,0,1,0-.576L69.6-11.16a.51.51,0,0,0,.168-.36.472.472,0,0,0-.5-.48H67.848a1.047,1.047,0,0,0-.6.36l-3.84,4.008c-.1.1-.144.12-.192.12-.072,0-.12-.048-.12-.168v-8.88a.481.481,0,0,0-.48-.48h-1.2a.481.481,0,0,0-.48.48V-.48a.481.481,0,0,0,.48.48h1.2a.481.481,0,0,0,.48-.48v-4.2c0-.12.048-.168.12-.168.048,0,.1.024.192.12l3.768,4.3a.98.98,0,0,0,.7.432h1.536a.473.473,0,0,0,.5-.48A.464.464,0,0,0,69.744-.84Z" transform="translate(4181.734 2564.576)" fill="#747474"/>
  </g>
</svg>
