<?xml version="1.0" encoding="utf-8"?>
<!-- Generator: Adobe Illustrator 26.0.1, SVG Export Plug-In . SVG Version: 6.00 Build 0)  -->
<svg version="1.1" id="Layer_1" xmlns="http://www.w3.org/2000/svg" xmlns:xlink="http://www.w3.org/1999/xlink" x="0px" y="0px"
	 viewBox="0 0 200 200" style="enable-background:new 0 0 200 200;" xml:space="preserve">
<style type="text/css">
	.st0{stroke:#000000;stroke-width:0.75;stroke-miterlimit:10;}
	.st1{fill:none;stroke:#000000;stroke-width:2;stroke-miterlimit:10;}
	.st2{fill:none;stroke:#000000;stroke-width:0.75;stroke-miterlimit:10;}
</style>
<g>
	<g>
		<path d="M137.64,123.57c11.47-0.68,21.88-7.09,28.89-16c3.68-4.68,6.51-9.97,8.29-15.65c2.13-6.79,3.01-14.48,0.99-21.39
			c-1.75-6.02-6.03-11.95-12.54-13.13c-5.36-0.97-12.16,1.12-14.85,6.19c-2.03,3.83-1.77,8.65-2.17,12.88
			c-0.42,4.55-0.95,9.09-1.67,13.6c-1.61,10.09-4.03,20.32-8.7,29.47c-2.2,4.32-4.92,8.39-8.39,11.8
			c-4.18,4.11-9.43,6.94-14.97,8.76c-3.97,1.3-7.87,1.98-12.07,1.89c-5.79-0.13-11.76-1.49-17.12-3.63
			c-3.62-1.44-7.42-3.57-10.34-6.16c-0.46-0.4-0.88-0.85-1.29-1.29c-0.3-0.32-0.59-0.65-0.87-0.99c-0.18-0.21-0.36-0.43-0.54-0.65
			c-0.26-0.32-0.47-0.59-0.49-0.62c-5.58-7.38-9.04-16.23-11.39-25.11c-3.08-11.64-4.29-23.74-3.87-35.76
			c0.13-3.77,0.43-7.53,0.87-11.27c-0.09,0.32-0.17,0.63-0.26,0.95c3.96-5.27,9.56-7.93,15.75-9.61c6.53-1.77,13.29-2.54,20.04-2.91
			c7.01-0.38,14.02-0.14,20.99,0.65c5.3,0.6,10.82,1.01,15.94,2.58c2.48,0.76,4.92,1.7,7.26,2.81c1.94,0.92,4.26,1.97,5.68,3.65
			c0.05,0.06,0.43,0.68,0.32,0.46c0.02,0.05,0.03,0.11,0.05,0.16c-0.02-0.24-0.02-0.25-0.01-0.03c0.06-0.06-0.02-0.28,0.08-0.25
			c0.07,0.02-0.38,0.48-0.05,0.14c-0.12,0.13-0.24,0.26-0.37,0.38c-0.15,0.13-0.53,0.38-0.91,0.59c-1.98,1.1-4.28,1.67-6.47,2.21
			c-8.35,2.05-15.82,2.77-24.46,3.07c-8.01,0.28-16.08,0.45-24.08-0.04c-7.46-0.46-14.88-1.57-22.18-3.19
			c-2.35-0.52-3.36,3.09-1,3.62c9.98,2.22,20.18,3.46,30.41,3.59c9.43,0.12,18.99,0.05,28.37-0.98c5.87-0.64,11.93-1.61,17.54-3.46
			c2.55-0.84,6.68-2.27,6.86-5.52c0.18-3.34-3.9-5.58-6.4-6.89c-3.45-1.82-7.2-3.32-10.97-4.31c-4.17-1.1-8.54-1.47-12.81-2
			c-10.08-1.25-20.18-1.53-30.29-0.46c-9.77,1.04-20.73,2.61-28.41,9.31c-1,0.88-1.94,1.83-2.8,2.85c-0.36,0.43-0.74,0.87-1.06,1.33
			c-0.51,0.74-0.54,1.4-0.64,2.28c-0.32,2.82-0.54,5.65-0.68,8.49c-0.25,5.12-0.2,10.26,0.16,15.38c0.63,8.94,2.12,17.89,4.7,26.49
			c2.12,7.05,4.98,14.02,9.05,20.18c1.64,2.49,3.49,5.07,5.78,7.02c6.4,5.45,14.43,8.45,22.61,9.92c7.13,1.28,14.14,0.91,20.98-1.44
			c8.36-2.87,15.41-7.79,20.62-14.93c9.25-12.66,12.5-29.12,14.41-44.37c0.41-3.27,0.74-6.56,1.03-9.84
			c0.26-3.03,0.08-6.56,1.67-9.24c1.94-3.27,6.7-4.67,10.28-4.13c4.87,0.74,8.16,4.97,9.69,9.38c3.31,9.48,0.41,20.76-4.41,29.22
			c-4.25,7.47-10.66,13.76-18.5,17.38c-3.54,1.63-7.39,2.62-11.28,2.85C135.24,119.97,135.22,123.72,137.64,123.57L137.64,123.57z"
			/>
	</g>
</g>
<circle class="st0" cx="78.74" cy="87.95" r="3.2"/>
<g>
	<g>
		<path d="M93.1,103.21c0.64,3.04,3.95,4.62,6.8,4.67c2.92,0.05,6.18-1.5,7.01-4.5c0.26-0.94-0.32-2.08-1.31-2.31
			c-0.99-0.23-2.03,0.3-2.31,1.31c0,0.02-0.1,0.35-0.11,0.35c-0.03-0.01,0.2-0.38,0.04-0.11c-0.07,0.1-0.13,0.21-0.19,0.32
			c-0.17,0.28,0.18-0.17,0.02-0.03c-0.15,0.13-0.33,0.31-0.47,0.46c-0.15,0.16,0.29-0.19,0-0.01c-0.12,0.07-0.23,0.15-0.35,0.22
			c-0.08,0.05-0.16,0.09-0.25,0.13c-0.09,0.05-0.5,0.18-0.08,0.05c-0.24,0.07-0.47,0.16-0.71,0.23c-0.12,0.03-0.25,0.06-0.37,0.08
			c-0.2,0.04-0.3,0.04-0.04,0.02c-0.29,0.03-0.58,0.05-0.88,0.04c-0.13,0-0.27-0.01-0.4-0.02c-0.37-0.01,0.17,0.04-0.05,0
			c-0.25-0.05-0.5-0.09-0.75-0.16c-0.12-0.03-0.24-0.07-0.36-0.11c-0.1-0.04-0.47-0.24-0.09-0.03c-0.21-0.12-0.42-0.21-0.62-0.34
			c-0.05-0.03-0.39-0.23-0.15-0.09c0.23,0.14-0.07-0.06-0.12-0.11c-0.11-0.1-0.42-0.33-0.45-0.47c0.15,0.2,0.18,0.24,0.11,0.13
			c-0.04-0.05-0.07-0.1-0.1-0.16c-0.05-0.09-0.09-0.19-0.15-0.27c-0.11-0.17,0.12,0.41,0.03,0.05c-0.03-0.12-0.06-0.23-0.09-0.35
			c-0.2-0.96-1.38-1.61-2.31-1.31C93.39,101.23,92.88,102.18,93.1,103.21L93.1,103.21z"/>
	</g>
</g>
<path class="st1" d="M-15.89,46.37"/>
<path class="st1" d="M-19.32,33.47"/>
<path class="st2" d="M53.19,60.42"/>
<path class="st2" d="M52.97,55.41"/>
<circle class="st0" cx="117.01" cy="87.95" r="3.2"/>
</svg>
